<svg width="20" height="20" viewBox="0 0 20 20" fill="none" xmlns="http://www.w3.org/2000/svg">
<path fill-rule="evenodd" clip-rule="evenodd" d="M10.0001 1.66675C5.39758 1.66675 1.66675 5.39758 1.66675 10.0001C1.66675 14.6026 5.39758 18.3334 10.0001 18.3334C14.6026 18.3334 18.3334 14.6026 18.3334 10.0001C18.3334 5.39758 14.6026 1.66675 10.0001 1.66675ZM7.08341 7.91675C7.08341 7.53372 7.15886 7.15445 7.30543 6.80059C7.45201 6.44672 7.66685 6.12519 7.93769 5.85435C8.20852 5.58351 8.53005 5.36868 8.88392 5.2221C9.23779 5.07552 9.61706 5.00008 10.0001 5.00008C10.3831 5.00008 10.7624 5.07552 11.1162 5.2221C11.4701 5.36868 11.7916 5.58351 12.0625 5.85435C12.3333 6.12519 12.5482 6.44672 12.6947 6.80059C12.8413 7.15445 12.9167 7.53372 12.9167 7.91675C12.9167 8.69029 12.6095 9.43216 12.0625 9.97914C11.5155 10.5261 10.7736 10.8334 10.0001 10.8334C9.22653 10.8334 8.48467 10.5261 7.93769 9.97914C7.3907 9.43216 7.08341 8.69029 7.08341 7.91675ZM15.2151 14.1534C14.5911 14.9379 13.798 15.5713 12.895 16.0065C11.992 16.4417 11.0025 16.6674 10.0001 16.6667C8.9977 16.6674 8.00812 16.4417 7.10514 16.0065C6.20216 15.5713 5.40909 14.9379 4.78508 14.1534C6.13591 13.1842 7.97925 12.5001 10.0001 12.5001C12.0209 12.5001 13.8642 13.1842 15.2151 14.1534Z" fill="#6D767D" fill-opacity="0.5"/>
</svg>
