<svg width="16" height="16" viewBox="0 0 16 16" fill="none" xmlns="http://www.w3.org/2000/svg">
<g clip-path="url(#clip0_2265_1754)">
<path d="M14.1033 1.79315L12.5806 0.220483C12.3936 0.0284601 12.1701 -0.12429 11.9233 -0.228809C11.6765 -0.333329 11.4113 -0.387513 11.1433 -0.388184H7.99992C7.23178 -0.387214 6.48747 -0.121457 5.89242 0.364295C5.29737 0.850047 4.88798 1.52609 4.73325 2.27848H4.66659C3.78286 2.27954 2.93562 2.63107 2.31073 3.25596C1.68584 3.88086 1.33431 4.72809 1.33325 5.61182V12.2785C1.33431 13.1622 1.68584 14.0094 2.31073 14.6343C2.93562 15.2592 3.78286 15.6108 4.66659 15.6118H8.66659C9.55032 15.6108 10.3975 15.2592 11.0224 14.6343C11.6473 14.0094 11.9989 13.1622 11.9999 12.2785V12.2118C12.7523 12.0571 13.4284 11.6477 13.9141 11.0527C14.3999 10.4576 14.6656 9.71329 14.6666 8.94515V3.18515C14.6676 2.66543 14.4654 2.16589 14.1033 1.79315ZM8.66659 14.2785H4.66659C4.13615 14.2785 3.62744 14.0678 3.25237 13.6927C2.8773 13.3176 2.66659 12.8089 2.66659 12.2785V5.61182C2.66659 5.08138 2.8773 4.57268 3.25237 4.1976C3.62744 3.82253 4.13615 3.61182 4.66659 3.61182V8.94515C4.66764 9.82888 5.01917 10.6761 5.64407 11.301C6.26896 11.9259 7.11619 12.2774 7.99992 12.2785H10.6666C10.6666 12.8089 10.4559 13.3176 10.0808 13.6927C9.70573 14.0678 9.19702 14.2785 8.66659 14.2785ZM11.3333 10.9452H7.99992C7.46949 10.9452 6.96078 10.7344 6.58571 10.3594C6.21063 9.98429 5.99992 9.47558 5.99992 8.94515V2.94515C5.99992 2.41472 6.21063 1.90601 6.58571 1.53094C6.96078 1.15586 7.46949 0.94515 7.99992 0.94515H10.6666V2.27848C10.6666 2.63211 10.8071 2.97124 11.0571 3.22129C11.3072 3.47134 11.6463 3.61182 11.9999 3.61182H13.3333V8.94515C13.3333 9.47558 13.1225 9.98429 12.7475 10.3594C12.3724 10.7344 11.8637 10.9452 11.3333 10.9452Z" fill="#E54362"/>
</g>
<defs>
<clipPath id="clip0_2265_1754">
<rect width="16" height="16" fill="white"/>
</clipPath>
</defs>
</svg>
