<svg width="20" height="20" viewBox="0 0 20 20" fill="none" xmlns="http://www.w3.org/2000/svg">
<path fill-rule="evenodd" clip-rule="evenodd" d="M5.10407 3.60037C2.816 5.29933 1.67196 6.14881 1.22263 7.40361C1.18659 7.50427 1.15417 7.60624 1.12543 7.70933C0.767274 8.9944 1.20426 10.3689 2.07822 13.1179C2.95219 15.8668 3.38918 17.2413 4.41802 18.0658C4.50055 18.132 4.58543 18.195 4.67249 18.2548C5.75767 19 7.17178 19 10 19C12.8282 19 14.2423 19 15.3275 18.2548C15.4146 18.195 15.4994 18.132 15.582 18.0658C16.6108 17.2413 17.0478 15.8668 17.9218 13.1179C18.7957 10.3689 19.2327 8.9944 18.8746 7.70933C18.8458 7.60624 18.8134 7.50427 18.7774 7.40361C18.328 6.14881 17.184 5.29933 14.8959 3.60038C12.6079 1.90142 11.4638 1.05193 10.1573 1.00295C10.0525 0.999018 9.94754 0.999018 9.84273 1.00295C8.53619 1.05193 7.39215 1.90141 5.10407 3.60037ZM8.28403 14.2139C7.92865 14.2139 7.64055 14.5084 7.64055 14.8716C7.64055 15.2348 7.92865 15.5292 8.28403 15.5292H11.716C12.0713 15.5292 12.3594 15.2348 12.3594 14.8716C12.3594 14.5084 12.0713 14.2139 11.716 14.2139H8.28403Z" fill="#6D767D" fill-opacity="0.5"/>
</svg>
