<svg width="24" height="24" viewBox="0 0 24 24" fill="none" xmlns="http://www.w3.org/2000/svg">
<path fill-rule="evenodd" clip-rule="evenodd" d="M7.10407 5.60037C4.816 7.29933 3.67196 8.14881 3.22263 9.40361C3.18659 9.50427 3.15417 9.60624 3.12543 9.70933C2.76727 10.9944 3.20426 12.3689 4.07822 15.1179C4.95219 17.8668 5.38918 19.2413 6.41802 20.0658C6.50055 20.132 6.58543 20.195 6.67249 20.2548C7.75767 21 9.17178 21 12 21C14.8282 21 16.2423 21 17.3275 20.2548C17.4146 20.195 17.4994 20.132 17.582 20.0658C18.6108 19.2413 19.0478 17.8668 19.9218 15.1179C20.7957 12.3689 21.2327 10.9944 20.8746 9.70933C20.8458 9.60624 20.8134 9.50427 20.7774 9.40361C20.328 8.14881 19.184 7.29933 16.8959 5.60038C14.6079 3.90142 13.4638 3.05193 12.1573 3.00295C12.0525 2.99902 11.9475 2.99902 11.8427 3.00295C10.5362 3.05193 9.39215 3.90141 7.10407 5.60037ZM10.284 16.2139C9.92865 16.2139 9.64055 16.5084 9.64055 16.8716C9.64055 17.2348 9.92865 17.5292 10.284 17.5292H13.716C14.0713 17.5292 14.3594 17.2348 14.3594 16.8716C14.3594 16.5084 14.0713 16.2139 13.716 16.2139H10.284Z" fill="#E54362"/>
</svg>
