<svg width="20" height="20" viewBox="0 0 20 20" fill="none" xmlns="http://www.w3.org/2000/svg">
<path fill-rule="evenodd" clip-rule="evenodd" d="M4.73031 3C4.26228 3 3.81342 3.15804 3.48248 3.43934C3.15153 3.72064 2.9656 4.10218 2.9656 4.5V5.25C2.73159 5.25 2.50716 5.32902 2.34169 5.46967C2.17621 5.61032 2.08325 5.80109 2.08325 6C2.08325 6.19891 2.17621 6.38968 2.34169 6.53033C2.50716 6.67098 2.73159 6.75 2.9656 6.75V8.25C2.73159 8.25 2.50716 8.32902 2.34169 8.46967C2.17621 8.61032 2.08325 8.80109 2.08325 9C2.08325 9.19891 2.17621 9.38968 2.34169 9.53033C2.50716 9.67098 2.73159 9.75 2.9656 9.75V11.25C2.73159 11.25 2.50716 11.329 2.34169 11.4697C2.17621 11.6103 2.08325 11.8011 2.08325 12C2.08325 12.1989 2.17621 12.3897 2.34169 12.5303C2.50716 12.671 2.73159 12.75 2.9656 12.75V14.25C2.73159 14.25 2.50716 14.329 2.34169 14.4697C2.17621 14.6103 2.08325 14.8011 2.08325 15C2.08325 15.1989 2.17621 15.3897 2.34169 15.5303C2.50716 15.671 2.73159 15.75 2.9656 15.75V16.5C2.9656 16.8978 3.15153 17.2794 3.48248 17.5607C3.81342 17.842 4.26228 18 4.73031 18H15.3185C15.7866 18 16.2354 17.842 16.5664 17.5607C16.8973 17.2794 17.0833 16.8978 17.0833 16.5V4.5C17.0833 4.10218 16.8973 3.72064 16.5664 3.43934C16.2354 3.15804 15.7866 3 15.3185 3H4.73031Z" fill="#6D767D" fill-opacity="0.5"/>
<path fill-rule="evenodd" clip-rule="evenodd" d="M7.28325 6.33325C6.96499 6.33325 6.65977 6.45178 6.43472 6.66276C6.20968 6.87374 6.08325 7.15988 6.08325 7.45825V8.20825C6.08325 8.50662 6.20968 8.79277 6.43472 9.00375C6.65977 9.21473 6.96499 9.33325 7.28325 9.33325H12.8833C13.2015 9.33325 13.5067 9.21473 13.7318 9.00375C13.9568 8.79277 14.0833 8.50662 14.0833 8.20825V7.45825C14.0833 7.15988 13.9568 6.87374 13.7318 6.66276C13.5067 6.45178 13.2015 6.33325 12.8833 6.33325H7.28325Z" fill="white"/>
</svg>
