<svg width="20" height="20" viewBox="0 0 20 20" fill="none" xmlns="http://www.w3.org/2000/svg">
<path d="M17.5802 10.5008C17.4011 10.191 17.4012 9.80917 17.5804 9.49947L18.2107 8.41007C18.3213 8.21877 18.3514 7.99139 18.2943 7.77793C18.2373 7.56446 18.0978 7.38238 17.9066 7.27173L16.8145 6.64049C16.5053 6.46179 16.3149 6.1318 16.3149 5.77471V4.5184C16.3149 4.29739 16.2271 4.08543 16.0708 3.92915C15.9145 3.77287 15.7026 3.68507 15.4816 3.68507H14.2262C13.8691 3.68507 13.539 3.49459 13.3603 3.18535L12.7299 2.09423C12.6194 1.90284 12.4375 1.76316 12.2241 1.7059C12.1183 1.67757 12.0081 1.67035 11.8995 1.68465C11.791 1.69894 11.6864 1.73448 11.5916 1.78924L10.5006 2.41985C10.1908 2.59888 9.80903 2.59881 9.49936 2.41965L8.40824 1.7884C8.21684 1.6779 7.98938 1.64795 7.7759 1.70515C7.56243 1.76235 7.38041 1.90201 7.2699 2.0934L6.63866 3.1855C6.45996 3.49466 6.12997 3.68507 5.77288 3.68507H4.5174C4.29639 3.68507 4.08443 3.77287 3.92815 3.92915C3.77187 4.08543 3.68407 4.29739 3.68407 4.5184V5.77388C3.68407 6.13097 3.49366 6.46096 3.1845 6.63966L2.0924 7.2709C1.99759 7.32569 1.91451 7.39863 1.84791 7.48554C1.7813 7.57246 1.73248 7.67165 1.70423 7.77745C1.67598 7.88324 1.66886 7.99357 1.68328 8.10212C1.69769 8.21067 1.73336 8.31531 1.78824 8.41007L2.41845 9.49925C2.59772 9.80906 2.59772 10.1911 2.41845 10.5009L1.78824 11.5901C1.67823 11.7815 1.64838 12.0088 1.7052 12.2221C1.76202 12.4355 1.90091 12.6178 2.09157 12.7292L3.18367 13.3605C3.49283 13.5392 3.68324 13.8692 3.68324 14.2263V15.4817C3.68324 15.7027 3.77103 15.9147 3.92731 16.071C4.08359 16.2273 4.29556 16.3151 4.51657 16.3151H5.77288C6.12997 16.3151 6.45996 16.5055 6.63866 16.8146L7.2699 17.9067C7.34368 18.0329 7.44902 18.1376 7.57555 18.2106C7.70209 18.2837 7.84546 18.3226 7.99157 18.3234C8.13657 18.3234 8.28074 18.2851 8.40907 18.2109L9.49851 17.5805C9.80819 17.4013 10.19 17.4013 10.4998 17.5803L11.5907 18.2109C11.782 18.3215 12.0094 18.3515 12.2229 18.2945C12.4363 18.2375 12.6184 18.098 12.7291 17.9067L13.3595 16.815C13.5382 16.5056 13.8683 16.3151 14.2255 16.3151H15.4807C15.7017 16.3151 15.9137 16.2273 16.07 16.071C16.2263 15.9147 16.3141 15.7027 16.3141 15.4817V14.2263C16.3141 13.8692 16.5045 13.5392 16.8136 13.3605L17.9057 12.7292C18.0005 12.6744 18.0836 12.6015 18.1502 12.5146C18.2168 12.4277 18.2657 12.3285 18.2939 12.2227C18.3222 12.1169 18.3293 12.0066 18.3149 11.898C18.3004 11.7895 18.2648 11.6848 18.2099 11.5901L17.5802 10.5008ZM7.91574 5.82507C8.24737 5.82518 8.56537 5.95702 8.79979 6.1916C9.03421 6.42618 9.16585 6.74427 9.16574 7.0759C9.16563 7.40753 9.03378 7.72554 8.7992 7.95996C8.56463 8.19438 8.24653 8.32601 7.9149 8.3259C7.58327 8.32579 7.26527 8.19394 7.03085 7.95937C6.79643 7.72479 6.66479 7.4067 6.6649 7.07507C6.66501 6.74344 6.79686 6.42543 7.03144 6.19101C7.26601 5.95659 7.5841 5.82496 7.91574 5.82507ZM8.66539 13.1589C8.3894 13.5268 7.86742 13.6015 7.49934 13.3257C7.13104 13.0497 7.05632 12.5274 7.33245 12.1592L11.3328 6.82543C11.6087 6.45746 12.1307 6.38278 12.4988 6.65862C12.8671 6.93461 12.9418 7.45695 12.6657 7.82513L8.66539 13.1589ZM12.0824 14.1584C11.9182 14.1583 11.7556 14.1259 11.6039 14.0631C11.4522 14.0002 11.3144 13.908 11.1983 13.7919C11.0823 13.6757 10.9902 13.5378 10.9274 13.3861C10.8646 13.2344 10.8323 13.0718 10.8324 12.9076C10.8325 12.7434 10.8649 12.5808 10.9277 12.4291C10.9906 12.2774 11.0828 12.1396 11.1989 12.0235C11.3151 11.9074 11.453 11.8154 11.6047 11.7526C11.7564 11.6898 11.919 11.6575 12.0832 11.6576C12.4149 11.6577 12.7329 11.7895 12.9673 12.0241C13.2017 12.2587 13.3333 12.5768 13.3332 12.9084C13.3331 13.24 13.2013 13.558 12.9667 13.7925C12.7321 14.0269 12.414 14.1585 12.0824 14.1584Z" fill="#6D767D" fill-opacity="0.5"/>
</svg>
