<svg width="29" height="28" viewBox="0 0 29 28" fill="none" xmlns="http://www.w3.org/2000/svg">
<path d="M23.9339 19.5804C23.2481 24.4185 19.4417 27.9469 14.4632 27.9997C13.4907 28.009 12.7896 27.7844 11.8783 27.496C8.79139 26.5193 6.62681 24.1953 5.77891 21.0705C5.66933 20.6666 5.57197 20.2427 5.48728 19.7984C5.43658 19.5308 5.39376 19.2615 5.36051 18.991C4.83822 14.8189 5.58786 10.9831 8.46415 8.12371C8.52669 8.06117 8.63261 8.10455 8.63374 8.19245C8.63684 8.48414 8.95715 8.07881 9.04521 8.53496C9.11789 8.91138 9.23441 9.32426 9.41938 9.74125C9.49601 9.91423 9.57714 10.0714 9.66053 10.214C9.82223 10.494 9.99013 10.7171 10.1394 10.8895C10.2183 10.9814 10.3671 10.9442 10.3958 10.827C10.4803 10.4771 10.8517 10.1881 10.996 9.77737C11.2247 9.12323 11.5419 8.41669 11.9859 7.73776C12.7758 6.53034 13.4141 6.31669 14.1032 5.47042C14.8109 4.60162 15.5376 3.71039 15.8486 0.911849C15.8627 0.787332 16.016 0.733807 16.1033 0.823391C16.4396 1.16804 16.5606 0.751047 16.8635 1.12747C16.9291 1.20889 16.9938 1.29104 17.0578 1.3738C17.064 1.38113 17.0696 1.38845 17.0758 1.39634C19.2281 4.1915 20.4783 7.74898 20.5961 11.1571C20.615 11.6878 20.6619 12.4362 20.6883 12.8366C20.6969 12.9664 20.8422 13.0381 20.9505 12.9661C21.7186 12.5655 22.6326 11.8523 22.7919 11.0202C22.8105 10.9275 22.9363 10.9114 22.9779 10.9963C23.1776 11.4404 23.42 11.1922 23.568 11.6799C24.2137 13.8071 24.359 16.3724 23.9339 19.5804Z" fill="#F9AF38"/>
<path d="M14.4594 25.0149C18.1308 25.0149 21.1072 22.0385 21.1072 18.3671C21.1072 14.6956 18.1308 11.7192 14.4594 11.7192C10.7879 11.7192 7.81153 14.6956 7.81153 18.3671C7.81153 22.0385 10.7879 25.0149 14.4594 25.0149Z" fill="#F5FCFF"/>
<path d="M19.8755 22.2154C18.8811 23.6155 17.3491 24.6325 15.5242 24.9289C11.9058 25.516 8.48472 23.0504 7.89763 19.4321C7.47788 16.8471 8.61656 14.3629 10.6201 12.9414C9.64256 14.3167 9.18393 16.0617 9.47522 17.8545C10.0623 21.4728 13.4834 23.9384 17.1018 23.3513C18.1351 23.1834 19.0749 22.7845 19.8755 22.2154Z" fill="#E0F5FC"/>
<path d="M15.0734 27.9754C14.8723 27.9895 14.6689 27.9974 14.4632 27.9996C13.4908 28.0092 12.5318 27.8571 11.6207 27.5686C8.53373 26.5916 6.19495 24.0663 5.34699 20.9416C5.23712 20.5376 5.13965 20.1139 5.05514 19.6693C5.00443 19.4017 4.96161 19.1324 4.92836 18.862C4.40607 14.6898 5.8845 10.175 8.76079 7.31565C8.82333 7.25311 8.92926 7.2965 8.93039 7.38439C8.9332 7.67625 8.95743 8.07853 9.04532 8.53491C6.88008 11.3656 5.82759 15.2425 6.28059 18.862C6.31383 19.1324 6.35665 19.4017 6.40736 19.6693C6.49187 20.1139 6.58935 20.5376 6.69921 20.9416C7.54717 24.0663 9.88596 26.5916 12.973 27.5686C13.6513 27.7833 14.3562 27.9224 15.0734 27.9754Z" fill="#F48931"/>
<path d="M11.418 3.04062C11.1857 4.27199 10.4412 4.5412 10.1174 4.79823C10.0639 4.84077 9.98507 4.8259 9.95064 4.76685C9.74263 4.41003 9.17171 3.71561 9.40401 2.48435C9.45184 2.23064 9.43206 1.95699 9.53286 1.73516C9.92134 0.88039 10.6086 0.280678 10.8656 0.0766049C10.9191 0.0340662 10.9979 0.0489407 11.0324 0.107988C11.2182 0.426831 11.7289 1.40962 11.6698 2.49365C11.6627 2.62279 11.4427 2.90968 11.418 3.04062Z" fill="#DF646E"/>
<path d="M11.623 2.88445C11.3903 4.1161 10.3846 5.00068 10.0606 5.2576C10.0071 5.30042 9.92822 5.28521 9.89385 5.22605C9.68594 4.8694 9.07124 3.68113 9.30337 2.45005C9.36028 2.14861 9.46339 1.86803 9.59185 1.61279C9.62566 2.57738 10.0629 3.41519 10.2319 3.7048C10.2663 3.76396 10.3452 3.77917 10.3987 3.73635C10.6432 3.54253 11.2771 2.99037 11.6726 2.20101C11.6805 2.42356 11.6664 2.65344 11.623 2.88445Z" fill="#DC4955"/>
<path d="M23.9356 5.70948C23.9511 6.74461 23.3535 7.43486 23.1046 7.70187C23.0607 7.74898 22.9868 7.75005 22.9415 7.70418C22.6849 7.44416 22.0666 6.88862 22.0511 5.85333C22.0483 5.65923 21.9293 5.37171 21.9713 5.19141C22.1533 4.41016 22.6799 3.78713 22.8821 3.57021C22.926 3.52311 22.9999 3.52204 23.0452 3.5679C23.2522 3.77766 23.7909 4.37912 23.9996 5.14735C24.0495 5.33142 23.9326 5.50941 23.9356 5.70948Z" fill="#DF646E"/>
<path d="M24.0838 5.72486C24.099 6.75988 23.3592 7.6422 23.1101 7.90927C23.0662 7.95603 22.9924 7.95716 22.9468 7.91152C22.6904 7.65122 21.9241 6.78918 21.9084 5.75416C21.905 5.5164 21.941 5.28708 22.0025 5.07129C22.2177 5.82234 22.7434 6.40886 22.9468 6.61564C22.9924 6.66128 23.0662 6.66015 23.1101 6.61339C23.3023 6.40774 23.7851 5.83699 23.9897 5.11186C24.0454 5.30624 24.0804 5.51189 24.0838 5.72486Z" fill="#DC4955"/>
<path d="M14.4593 14.452C14.2259 14.452 14.0367 14.2629 14.0367 14.0294V13.1843C14.0367 12.9509 14.2259 12.7617 14.4593 12.7617C14.6927 12.7617 14.8819 12.9509 14.8819 13.1843V14.0294C14.8819 14.2629 14.6927 14.452 14.4593 14.452Z" fill="#5F6C75"/>
<path d="M10.1216 18.7895H9.27644C9.04302 18.7895 8.85387 18.6003 8.85387 18.3669C8.85387 18.1335 9.04302 17.9443 9.27644 17.9443H10.1216C10.355 17.9443 10.5442 18.1335 10.5442 18.3669C10.5442 18.6003 10.355 18.7895 10.1216 18.7895Z" fill="#5F6C75"/>
<path d="M14.4593 23.9725C14.2259 23.9725 14.0367 23.7834 14.0367 23.5499V22.7048C14.0367 22.4714 14.2259 22.2822 14.4593 22.2822C14.6927 22.2822 14.8819 22.4714 14.8819 22.7048V23.5499C14.8819 23.7833 14.6927 23.9725 14.4593 23.9725Z" fill="#5F6C75"/>
<path d="M9.69721 18.79H9.27633C9.04307 18.79 8.85376 18.6007 8.85376 18.3674C8.85376 18.1336 9.04307 17.9448 9.27633 17.9448H9.491C9.5417 18.2344 9.61101 18.5167 9.69721 18.79Z" fill="#4E5A61"/>
<path d="M14.8819 23.3353V23.5494C14.8819 23.7832 14.6926 23.9719 14.4593 23.9719C14.226 23.9719 14.0367 23.7832 14.0367 23.5494V23.1279C14.3122 23.2153 14.594 23.2851 14.8819 23.3353Z" fill="#4E5A61"/>
<path d="M19.6421 18.7895H18.7969C18.5635 18.7895 18.3744 18.6003 18.3744 18.3669C18.3744 18.1335 18.5635 17.9443 18.7969 17.9443H19.6421C19.8755 17.9443 20.0647 18.1335 20.0647 18.3669C20.0647 18.6003 19.8755 18.7895 19.6421 18.7895Z" fill="#5F6C75"/>
<path d="M13.8617 18.1921C13.7535 18.1921 13.8621 17.9834 13.7796 17.9009L12.7784 17.2839L12.3462 16.8517C12.1812 16.6866 12.1812 16.4191 12.3462 16.2541C12.5113 16.0891 12.7788 16.0891 12.9438 16.2541L13.3763 16.6866L13.7723 17.7427C13.9373 17.9078 14.3254 17.9033 14.1604 18.0683C14.078 18.1508 13.9698 18.1921 13.8617 18.1921Z" fill="#F9AF38"/>
<path d="M15.0569 18.192C14.9487 18.192 14.8406 18.1507 14.758 18.0682C14.593 17.9032 14.7798 17.771 14.9447 17.6059L15.5421 16.6864L17.4208 14.8078C17.5859 14.6428 17.8534 14.6428 18.0184 14.8078C18.1834 14.9729 18.1834 15.2404 18.0184 15.4054L16.1401 17.2838L15.1605 17.8792C15.0781 17.9617 15.165 18.192 15.0569 18.192Z" fill="#F9AF38"/>
<path d="M23.5677 11.68C23.5408 11.7198 23.5112 11.7606 23.4794 11.8021C22.8962 12.5622 21.9816 12.9944 21.0235 12.9944H20.879L20.8801 12.9927C21.6234 12.6547 22.4015 11.5439 22.7479 10.6855C22.8299 10.5643 22.8245 10.0664 23.0459 10.2837C23.2495 10.7357 23.4236 11.2049 23.5677 11.68Z" fill="#F48931"/>
<path d="M16.8634 1.12749C16.4938 3.30006 15.8104 4.54805 15.1917 5.30755C14.5027 6.15382 13.8654 6.42933 13.0755 7.63676C12.6315 8.31569 12.3143 9.02222 12.0856 9.67636C12.0461 9.78871 12.0015 9.93419 11.9575 10.0863C11.811 10.5923 11.3477 10.9407 10.8209 10.9407H10.2719L10.2725 10.939C10.4829 10.8874 10.6376 9.73006 10.8343 9.40034C11.3551 7.70014 12.7896 6.37057 13.8395 5.30755C14.5472 4.43875 15.3388 2.93158 15.6498 0.133041C15.6639 0.00852344 15.8172 -0.0450021 15.9045 0.0445827C16.2408 0.3894 16.5609 0.75112 16.8634 1.12749Z" fill="#F48931"/>
<path d="M14.4593 19.2123C14.9261 19.2123 15.3044 18.8339 15.3044 18.3671C15.3044 17.9004 14.9261 17.522 14.4593 17.522C13.9925 17.522 13.6142 17.9004 13.6142 18.3671C13.6142 18.8339 13.9925 19.2123 14.4593 19.2123Z" fill="#F9AF38"/>
<path d="M14.1607 18.068C14.0779 18.1509 13.9697 18.192 13.8615 18.192C13.7533 18.192 13.6451 18.1509 13.5629 18.068L12.7786 17.2838C12.933 17.0449 13.1369 16.8409 13.3764 16.6865L14.1607 17.4708C14.3258 17.6359 14.3258 17.903 14.1607 18.068Z" fill="#F48931"/>
<path d="M16.14 17.2838L15.3557 18.068C15.2734 18.1509 15.1653 18.192 15.0571 18.192C14.9489 18.192 14.8407 18.1509 14.7579 18.068C14.5928 17.903 14.5928 17.6359 14.7579 17.4708L15.5422 16.6865C15.7817 16.8409 15.9856 17.0449 16.14 17.2838Z" fill="#F48931"/>
<path d="M14.4593 19.635C13.7603 19.635 13.1916 19.0663 13.1916 18.3673C13.1916 17.6683 13.7603 17.0996 14.4593 17.0996C15.1583 17.0996 15.727 17.6683 15.727 18.3673C15.727 19.0663 15.1583 19.635 14.4593 19.635ZM14.4593 17.9447C14.2263 17.9447 14.0367 18.1343 14.0367 18.3673C14.0367 18.6004 14.2263 18.7899 14.4593 18.7899C14.6923 18.7899 14.8819 18.6004 14.8819 18.3673C14.8819 18.1343 14.6923 17.9447 14.4593 17.9447Z" fill="#5F6C75"/>
</svg>
